<svg width="32" height="32" viewBox="0 0 32 32" fill="none" xmlns="http://www.w3.org/2000/svg">
  <rect width="32" height="32" rx="8" fill="url(#gradient)"/>
  <g stroke="white" stroke-width="1.5" stroke-linecap="round" stroke-linejoin="round" transform="translate(6 6)">
    <path d="m16.5 8.5v-6c0-1.1-.9-2-2-2h-6c-1.1 0-2 .9-2 2v6c0 1.1.9 2 2 2h6c1.1 0 2-.9 2-2z" />
    <path d="m4.5 6.5h-2c-1.1 0-2 .9-2 2v6c0 1.1.9 2 2 2h6c1.1 0 2-.9 2-2v-2" />
    <g transform="translate(2.5 9.5)">
      <path d="m3 1h-3" />
      <path d="m4.5 2.5c-.33.33-.67.67-1 1s-1.17.83-2.5 1.5" />
      <path d="m1 1c.33 1.17.83 2 1.5 2.5s1.5 1 2.5 1.5" />
    </g>
    <g transform="translate(8.5 2.5)">
      <path d="m3 0-3 6" />
      <path d="m3 0 3 6" />
      <path d="m1 4h4" />
    </g>
  </g>
  <defs>
    <linearGradient id="gradient" x1="0" y1="0" x2="32" y2="32" gradientUnits="userSpaceOnUse">
      <stop stop-color="#7C5DFA"/>
      <stop offset="1" stop-color="#4B5BCC"/>
    </linearGradient>
  </defs>
</svg>
