<svg width="256" height="256" viewBox="0 0 256 256" fill="none" xmlns="http://www.w3.org/2000/svg">
  <rect width="256" height="256" rx="48" fill="url(#gradient)"/>
  <g stroke="white" stroke-width="8" stroke-linecap="round" stroke-linejoin="round" transform="translate(48 48)">
    <path d="m132 68v-48c0-8.8-7.2-16-16-16h-48c-8.8 0-16 7.2-16 16v48c0 8.8 7.2 16 16 16h48c8.8 0 16-7.2 16-16z" />
    <path d="m36 52h-16c-8.8 0-16 7.2-16 16v48c0 8.8 7.2 16 16 16h48c8.8 0 16-7.2 16-16v-16" />
    <g transform="translate(20 76)">
      <path d="m24 8h-24" />
      <path d="m36 20c-2.67 2.67-5.33 5.33-8 8s-9.33 6.67-20 12" />
      <path d="m8 8c2.67 9.33 6.67 16 12 20s12 8 20 12" />
    </g>
    <g transform="translate(68 20)">
      <path d="m24 0-24 48" />
      <path d="m24 0 24 48" />
      <path d="m8 32h32" />
    </g>
  </g>
  <defs>
    <linearGradient id="gradient" x1="0" y1="0" x2="256" y2="256" gradientUnits="userSpaceOnUse">
      <stop stop-color="#7C5DFA"/>
      <stop offset="1" stop-color="#4B5BCC"/>
    </linearGradient>
  </defs>
</svg>
